name C:/MyDriveSym/Projects/mobilecap/Data\Session20210903_0002\mocap\ForceDataProcessed\walkingTS3_forces.mot
datacolumns 19
datarows 12
range 0.35450000 0.36000000
endheader 
time	R_ground_force_vx	R_ground_force_vy	R_ground_force_vz	R_ground_force_px	R_ground_force_py	R_ground_force_pz	R_ground_torque_x	R_ground_torque_y	R_ground_torque_z	L_ground_force_vx	L_ground_force_vy	L_ground_force_vz	L_ground_force_px	L_ground_force_py	L_ground_force_pz	L_ground_torque_x	L_ground_torque_y	L_ground_torque_z	
          0.35450000	         -5.73785400	        464.68586100	        -47.89821900	          0.26662800	          0.00600000	         -0.12185300	          0.00000000	         -3.18884100	          0.00000000	          0.00000000	          0.00000000	          0.00000000	          0.75627700	          0.00000000	         -0.32764700	          0.00000000	          0.00000000	          0.00000000	
          0.35500000	         -5.58220100	        464.91618500	        -47.99300900	          0.26674100	          0.00600000	         -0.12184100	          0.00000000	         -3.19108400	          0.00000000	          0.00000000	          0.00000000	          0.00000000	          0.75627700	          0.00000000	         -0.32764700	          0.00000000	          0.00000000	          0.00000000	
          0.35550000	         -5.42632400	        465.14838600	        -48.08822500	          0.26685400	          0.00600000	         -0.12183000	          0.00000000	         -3.19325300	          0.00000000	          0.00000000	          0.00000000	          0.00000000	          0.75627700	          0.00000000	         -0.32764700	          0.00000000	          0.00000000	          0.00000000	
          0.35600000	         -5.27021800	        465.38245700	        -48.18385900	          0.26696700	          0.00600000	         -0.12181900	          0.00000000	         -3.19534800	          0.00000000	          0.00000000	          0.00000000	          0.00000000	          0.75627700	          0.00000000	         -0.32764700	          0.00000000	          0.00000000	          0.00000000	
          0.35650000	         -5.11387600	        465.61839000	        -48.27990400	          0.26707900	          0.00600000	         -0.12180800	          0.00000000	         -3.19737000	          0.00000000	          0.00000000	          0.00000000	          0.00000000	          0.75627700	          0.00000000	         -0.32764700	          0.00000000	          0.00000000	          0.00000000	
          0.35700000	         -4.95729300	        465.85617900	        -48.37635400	          0.26719100	          0.00600000	         -0.12179700	          0.00000000	         -3.19931800	          0.00000000	          0.00000000	          0.00000000	          0.00000000	          0.75627700	          0.00000000	         -0.32764700	          0.00000000	          0.00000000	          0.00000000	
          0.35750000	         -4.80046300	        466.09581600	        -48.47320100	          0.26730300	          0.00600000	         -0.12178700	          0.00000000	         -3.20119300	          0.00000000	          0.00000000	          0.00000000	          0.00000000	          0.75627700	          0.00000000	         -0.32764700	          0.00000000	          0.00000000	          0.00000000	
          0.35800000	         -4.64338000	        466.33729400	        -48.57043900	          0.26741400	          0.00600000	         -0.12177700	          0.00000000	         -3.20299400	          0.00000000	          0.00000000	          0.00000000	          0.00000000	          0.75627700	          0.00000000	         -0.32764700	          0.00000000	          0.00000000	          0.00000000	
          0.35850000	         -4.48603800	        466.58060500	        -48.66806000	          0.26752500	          0.00600000	         -0.12176800	          0.00000000	         -3.20472200	          0.00000000	          0.00000000	          0.00000000	          0.00000000	          0.75627700	          0.00000000	         -0.32764700	          0.00000000	          0.00000000	          0.00000000	
          0.35900000	         -4.32843100	        466.82574400	        -48.76605700	          0.26763600	          0.00600000	         -0.12175800	          0.00000000	         -3.20637800	          0.00000000	          0.00000000	          0.00000000	          0.00000000	          0.75627700	          0.00000000	         -0.32764700	          0.00000000	          0.00000000	          0.00000000	
          0.35950000	         -4.17055300	        467.07270400	        -48.86442400	          0.26774600	          0.00600000	         -0.12174900	          0.00000000	         -3.20796000	          0.00000000	          0.00000000	          0.00000000	          0.00000000	          0.75627700	          0.00000000	         -0.32764700	          0.00000000	          0.00000000	          0.00000000	
          0.36000000	         -4.01239800	        467.32147700	        -48.96315300	          0.26785600	          0.00600000	         -0.12174100	          0.00000000	         -3.20947000	          0.00000000	          0.00000000	          0.00000000	          0.00000000	          0.75627700	          0.00000000	         -0.32764700	          0.00000000	          0.00000000	          0.00000000	
